<svg version="1.1" id="Layer_1" xmlns="http://www.w3.org/2000/svg" xmlns:xlink="http://www.w3.org/1999/xlink" x="0px" y="0px" viewBox="0 0 1200 1200" enable-background="new 0 0 1200 1200" xml:space="preserve">
<g>
	<path fill="#FFC20F" d="M1113.034,633.717c-49.063-39.993-56.641-112.091-16.965-161.411l29.892-37.159l-46.025-12.492
		c-61.088-16.58-97.336-79.363-81.151-140.557l12.195-46.105l-47.127,7.308c-62.55,9.7-121.2-32.912-131.304-95.398l-7.612-47.079
		l-40.081,25.845c-53.197,34.303-124.108,19.23-158.754-33.744L600,53.013l-26.103,39.913
		C539.252,145.9,468.34,160.973,415.143,126.67l-40.081-25.845l-7.612,47.079c-10.103,62.486-68.753,105.098-131.304,95.398
		l-47.127-7.308l12.195,46.105c16.185,61.194-20.063,123.977-81.15,140.557l-46.026,12.492l29.893,37.159
		c39.675,49.32,32.097,121.418-16.965,161.411L50,663.85l42.423,21.788c56.305,28.918,78.708,97.866,50.153,154.357l-21.514,42.562
		l47.617,2.65c63.2,3.516,111.71,57.391,108.601,120.613l-2.343,47.633l44.578-16.947c59.166-22.493,125.395,6.994,148.268,66.014
		l17.235,44.468l33.831-33.613c44.902-44.614,117.398-44.614,162.3,0l33.831,33.613l17.235-44.468
		c22.874-59.02,89.102-88.506,148.269-66.013l44.578,16.947l-2.342-47.633c-3.109-63.221,45.4-117.096,108.6-120.613l47.617-2.65
		l-21.514-42.563c-28.554-56.491-6.152-125.438,50.154-154.357L1150,663.85L1113.034,633.717z M600,1029.119
		c-235.561,0-426.521-190.96-426.521-426.521c0-235.561,190.96-426.521,426.521-426.521s426.521,190.96,426.521,426.521
		C1026.521,838.159,835.561,1029.119,600,1029.119z" style="fill: rgb(236, 212, 68);"></path>
	<circle fill="#FFC20F" cx="600" cy="602.598" r="369.31" style="fill: rgb(236, 212, 68);"></circle>
</g>
</svg>